<?xml version="1.0" encoding="utf-8"?>
<!-- Generator: Adobe Illustrator 27.5.0, SVG Export Plug-In . SVG Version: 6.00 Build 0)  -->
<svg version="1.1" id="Livello_1" xmlns="http://www.w3.org/2000/svg" xmlns:xlink="http://www.w3.org/1999/xlink" x="0px" y="0px"
	 viewBox="0 0 841.89 595.28" style="enable-background:new 0 0 841.89 595.28;" xml:space="preserve">
<style type="text/css">
	.st0{fill:#2A56A0;stroke:#2A56A0;stroke-width:2;stroke-miterlimit:10;}
	.st1{fill:none;stroke:#2A56A0;stroke-width:2;stroke-miterlimit:10;}
	.st2{fill:none;}
	.st3{fill:#2A56A0;}
	.st4{font-family:'FranklinGothic-DemiCond';}
	.st5{font-size:36px;}
</style>
<g>
	<path class="st0" d="M149.39,257.63v59.84c0,9.72,3.49,14.58,10.47,14.58c2.98,0,5.5-1.01,7.58-3.04c2.07-2.03,3.11-4.48,3.11-7.36
		c0-2.98-0.98-5.48-2.93-7.51c-1.95-2.03-4.35-3.04-7.18-3.04c-2,0-4.3,0.88-6.88,2.64v-30.18c3.22-0.29,5.66-0.44,7.32-0.44
		c10.3,0,19.13,3.71,26.48,11.13c7.35,7.42,11.02,16.36,11.02,26.81c0,10.69-3.74,19.7-11.21,27.03s-16.65,10.99-27.54,10.99
		c-5.47,0-10.8-1.2-16-3.59s-9.48-5.61-12.85-9.67c-5.86-7.03-8.79-16.14-8.79-27.32v-60.86H149.39z"/>
	<path class="st1" d="M255.37,257.63h27.39v60.86c0,11.18-2.93,20.29-8.79,27.32c-3.37,4.05-7.65,7.28-12.85,9.67
		s-10.54,3.59-16,3.59c-10.89,0-20.07-3.66-27.54-10.99s-11.21-16.31-11.21-26.95c0-10.3,3.71-19.21,11.13-26.73
		c7.42-7.52,16.21-11.28,26.37-11.28c1.61,0,4.05,0.15,7.32,0.44v30.18c-2.25-1.76-4.49-2.64-6.74-2.64c-2.83,0-5.26,1.04-7.29,3.11
		c-2.03,2.08-3.04,4.58-3.04,7.51c0,2.83,1.05,5.26,3.15,7.29c2.1,2.03,4.61,3.04,7.54,3.04c7.03,0,10.55-4.86,10.55-14.58V257.63z"
		/>
	<path class="st1" d="M324.59,286.58v73.02H297.2v-73.02H324.59z M310.96,253.99c3.71,0,6.92,1.31,9.63,3.92
		c2.71,2.61,4.06,5.7,4.06,9.27c0,3.81-1.28,6.93-3.85,9.38c-2.56,2.44-5.85,3.66-9.85,3.66c-4,0-7.29-1.22-9.85-3.66
		c-2.56-2.44-3.85-5.57-3.85-9.38c0-3.56,1.35-6.65,4.06-9.27C304.04,255.3,307.25,253.99,310.96,253.99z"/>
	<path class="st1" d="M386.48,285.61v28.86c-3.86,0-6.51,0.72-7.95,2.16c-1.44,1.44-2.36,4.28-2.75,8.53
		c-1.27,14.11-6.74,24.07-16.41,29.88c-5.13,3.03-12.4,4.54-21.83,4.54h-3.81v-29h1.25c4.39,0,7.53-0.92,9.41-2.75
		c1.88-1.83,2.97-5.04,3.26-9.63c0.39-7.47,1.09-12.72,2.09-15.75c1-3.03,3.04-6.03,6.12-9.01c5.37-5.22,12.82-7.84,22.34-7.84
		H386.48z"/>
	<path class="st1" d="M440.24,323.99l27.17-1.03c-0.78,10.55-4.71,19.21-11.79,26c-7.08,6.79-15.7,10.18-25.86,10.18
		c-10.74,0-19.81-3.74-27.21-11.21c-7.4-7.47-11.1-16.63-11.1-27.47c0-10.3,3.73-19.12,11.21-26.44s16.43-10.99,26.88-10.99
		c9.13,0,17.19,2.88,24.17,8.64c6.98,5.76,11.33,13.11,13.04,22.05l-27.76,1.03c-2.39-3.12-5.42-4.69-9.08-4.69
		c-3.12,0-5.69,1.03-7.69,3.08c-2,2.05-3,4.64-3,7.76c0,3.17,1.06,5.83,3.19,7.98c2.12,2.15,4.77,3.22,7.95,3.22
		C434.99,332.12,438.29,329.41,440.24,323.99z"/>
	<path class="st1" d="M513.99,283.05c10.35,0,19.23,3.72,26.62,11.17c7.4,7.45,11.1,16.37,11.1,26.77
		c0,10.55-3.75,19.53-11.24,26.95c-7.5,7.42-16.54,11.13-27.14,11.13c-10.6,0-19.65-3.72-27.17-11.17
		c-7.52-7.45-11.28-16.42-11.28-26.92c0-10.69,3.76-19.69,11.28-26.99C493.68,286.7,502.96,283.05,513.99,283.05z M513.26,310.07
		c-2.93,0-5.42,1.06-7.47,3.19c-2.05,2.12-3.08,4.72-3.08,7.8c0,3.03,1.04,5.62,3.11,7.76c2.07,2.15,4.55,3.22,7.43,3.22
		c2.93,0,5.43-1.07,7.51-3.22c2.07-2.15,3.11-4.74,3.11-7.76c0-3.08-1.03-5.68-3.08-7.8C518.75,311.13,516.24,310.07,513.26,310.07z
		"/>
	<path class="st1" d="M663.33,359.61"/>
</g>
<rect y="606.3" class="st2" width="113.33" height="14.67"/>
<text transform="matrix(1 0 0 1 -7.629395e-06 616.3216)" style="display:none;fill:#E30613; font-family:'ArialMT'; font-size:14px;">Font Bauhaus 93</text>
<path class="st0" d="M663.33,359.61"/>
<path class="st0" d="M705.85,359.61"/>
<path class="st1" d="M599.54,359.61"/>
<rect x="731.8" y="336.01" class="st2" width="94.91" height="35.67"/>
<text transform="matrix(1 0 0 1 731.7961 360.0197)" class="st3 st4 st5">Srl</text>
<path class="st1" d="M705.85,368.41"/>
<path class="st1" d="M728.53,345.74"/>
<path class="st1" d="M705.85,359.61"/>
<path class="st1" d="M705.85,368.59l22.68-22.68l-22.68-22.68v8.98v0l-42.52,0v-14.5c0-9.91-2.17-17.46-6.52-22.63
	c-5.52-6.64-12.84-9.96-21.97-9.96c-7.18,0-14.36,3.42-21.53,10.25c-6.45-6.84-13.72-10.25-21.83-10.25
	c-7.86,0-14.55,2.87-20.07,8.61c-5.52,5.74-8.28,12.71-8.28,20.91v44.97h27.39v-39.33c0-5.42,1.51-8.13,4.54-8.13
	c1.66,0,2.82,0.59,3.48,1.76c0.66,1.17,0.99,3.27,0.99,6.3v39.4h27.39v-39.33c0-5.42,1.54-8.13,4.61-8.13
	c1.66,0,2.81,0.59,3.44,1.76c0.63,1.17,0.95,3.27,0.95,6.3v39.4h27.39h42.52V368.59z"/>
<rect y="620.96" class="st2" width="220.67" height="14.67"/>
<text transform="matrix(1 0 0 1 0 630.9878)" style="display:none;fill:#E30613; font-family:'ArialMT'; font-size:14px;">Font Franklin Gothic Demi Cond</text>
</svg>
