<?xml version="1.0" encoding="utf-8"?>
<!-- Generator: Adobe Illustrator 27.5.0, SVG Export Plug-In . SVG Version: 6.00 Build 0)  -->
<svg version="1.1" id="Livello_1" xmlns="http://www.w3.org/2000/svg" xmlns:xlink="http://www.w3.org/1999/xlink" x="0px" y="0px"
	 viewBox="0 0 841.9 595.3" style="enable-background:new 0 0 841.9 595.3;" xml:space="preserve">
<style type="text/css">
	.st0{fill:none;stroke:#FFFFFF;stroke-width:3;stroke-miterlimit:10;}
	.st1{fill:none;}
	.st2{fill:#2A56A0;stroke:#FFFFFF;stroke-width:3;stroke-miterlimit:10;}
	.st3{fill:#2A56A0;stroke:#2A56A0;stroke-width:3;stroke-miterlimit:10;}
	.st4{enable-background:new    ;}
	.st5{fill:#FFFFFF;}
	.st6{fill:none;stroke:#2A56A0;stroke-width:3;stroke-miterlimit:10;}
	.st7{fill:none;stroke:#2A56A0;stroke-width:2;stroke-miterlimit:10;}
	.st8{fill:#FFFFFF;stroke:#FFFFFF;stroke-width:3;stroke-miterlimit:10;}
</style>
<g>
	<path class="st0" d="M255.4,257.6h27.4v60.9c0,11.2-2.9,20.3-8.8,27.3c-3.4,4-7.6,7.3-12.9,9.7s-10.5,3.6-16,3.6
		c-10.9,0-20.1-3.7-27.5-11s-11.2-16.3-11.2-27c0-10.3,3.7-19.2,11.1-26.7c7.4-7.5,16.2-11.3,26.4-11.3c1.6,0,4.1,0.1,7.3,0.4v30.2
		c-2.2-1.8-4.5-2.6-6.7-2.6c-2.8,0-5.3,1-7.3,3.1c-2,2.1-3,4.6-3,7.5c0,2.8,1.1,5.3,3.1,7.3c2.1,2,4.6,3,7.5,3
		c7,0,10.6-4.9,10.6-14.6L255.4,257.6L255.4,257.6z"/>
	<path class="st0" d="M324.6,286.6v73h-27.4v-73H324.6z M311,254c3.7,0,6.9,1.3,9.6,3.9c2.7,2.6,4.1,5.7,4.1,9.3
		c0,3.8-1.3,6.9-3.9,9.4c-2.6,2.4-5.9,3.7-9.9,3.7s-7.3-1.2-9.9-3.7s-3.9-5.6-3.9-9.4c0-3.6,1.4-6.6,4.1-9.3
		C304,255.3,307.2,254,311,254z"/>
	<path class="st0" d="M386.5,285.6v28.9c-3.9,0-6.5,0.7-8,2.2s-2.4,4.3-2.8,8.5c-1.3,14.1-6.7,24.1-16.4,29.9
		c-5.1,3-12.4,4.5-21.8,4.5h-3.8v-29h1.2c4.4,0,7.5-0.9,9.4-2.8s3-5,3.3-9.6c0.4-7.5,1.1-12.7,2.1-15.8s3-6,6.1-9
		c5.4-5.2,12.8-7.8,22.3-7.8L386.5,285.6L386.5,285.6z"/>
	<path class="st0" d="M440.2,324l27.2-1c-0.8,10.5-4.7,19.2-11.8,26c-7.1,6.8-15.7,10.2-25.9,10.2c-10.7,0-19.8-3.7-27.2-11.2
		s-11.1-16.6-11.1-27.5c0-10.3,3.7-19.1,11.2-26.4s16.4-11,26.9-11c9.1,0,17.2,2.9,24.2,8.6s11.3,13.1,13,22l-27.8,1
		c-2.4-3.1-5.4-4.7-9.1-4.7c-3.1,0-5.7,1-7.7,3.1s-3,4.6-3,7.8c0,3.2,1.1,5.8,3.2,8c2.1,2.1,4.8,3.2,8,3.2
		C435,332.1,438.3,329.4,440.2,324z"/>
	<path class="st0" d="M514,283c10.3,0,19.2,3.7,26.6,11.2c7.4,7.5,11.1,16.4,11.1,26.8c0,10.5-3.8,19.5-11.2,27
		c-7.5,7.4-16.5,11.1-27.1,11.1c-10.6,0-19.6-3.7-27.2-11.2c-7.5-7.5-11.3-16.4-11.3-26.9c0-10.7,3.8-19.7,11.3-27
		C493.7,286.7,503,283,514,283z M513.3,310.1c-2.9,0-5.4,1.1-7.5,3.2c-2,2.1-3.1,4.7-3.1,7.8c0,3,1,5.6,3.1,7.8
		c2.1,2.1,4.5,3.2,7.4,3.2c2.9,0,5.4-1.1,7.5-3.2c2.1-2.1,3.1-4.7,3.1-7.8c0-3.1-1-5.7-3.1-7.8C518.8,311.1,516.2,310.1,513.3,310.1
		z"/>
	<path class="st0" d="M663.3,359.6"/>
</g>
<rect y="606.3" class="st1" width="113.3" height="14.7"/>
<text transform="matrix(1 0 0 1 0 616.3216)" style="display:none;fill:#E30613;enable-background:new    ; font-family:'ArialMT'; font-size:14px;">Font Bauhaus 93</text>
<path class="st2" d="M663.3,359.6"/>
<path class="st3" d="M705.8,359.6"/>
<path class="st0" d="M599.5,359.6"/>
<rect x="731.8" y="336" class="st1" width="94.9" height="35.7"/>
<g class="st4">
	<path class="st5" d="M748.7,341.2l-4.4,1.7c-0.6-2-1.8-3-3.4-3c-0.8,0-1.4,0.2-1.8,0.7s-0.7,1-0.7,1.5c0,0.7,0.3,1.2,0.8,1.6
		s1.6,0.9,3.3,1.6c1.5,0.6,2.8,1.1,3.6,1.7s1.6,1.3,2.1,2.3s0.8,2.1,0.8,3.4c0,2.2-0.8,4.1-2.3,5.5s-3.6,2.2-6.2,2.2
		c-4.3,0-7.1-2.2-8.3-6.6l4.6-1.3c0.6,2.4,1.8,3.6,3.8,3.6c0.9,0,1.7-0.2,2.2-0.7s0.9-1.1,0.9-1.9c0-0.6-0.2-1.1-0.6-1.6
		s-1.3-1-2.7-1.5c-1.8-0.7-3.2-1.3-4.1-1.8s-1.6-1.3-2.2-2.3s-0.9-2.1-0.9-3.4c0-2.2,0.7-3.9,2.1-5.3s3.2-2.1,5.5-2.1
		C745.1,335.7,747.7,337.5,748.7,341.2z"/>
	<path class="st5" d="M752,342.3h4.4v4.3c0.8-3,2.2-4.5,4.2-4.5c0.2,0,0.5,0,0.8,0.1v4.8c-0.4,0-0.6-0.1-0.8-0.1
		c-2.4,0-3.6,1.8-3.6,5.5v7.6h-5V342.3z"/>
	<path class="st5" d="M763,336h5v24h-5V336z"/>
</g>
<path class="st6" d="M705.8,368.4"/>
<path class="st7" d="M728.5,345.7"/>
<path class="st6" d="M705.8,359.6"/>
<path class="st0" d="M705.8,368.6l22.7-22.7l-22.7-22.7v9l0,0h-42.5v-14.5c0-9.9-2.2-17.5-6.5-22.6c-5.5-6.6-12.8-10-22-10
	c-7.2,0-14.4,3.4-21.5,10.2c-6.5-6.8-13.7-10.2-21.8-10.2c-7.9,0-14.5,2.9-20.1,8.6s-8.3,12.7-8.3,20.9v45h27.4v-39.3
	c0-5.4,1.5-8.1,4.5-8.1c1.7,0,2.8,0.6,3.5,1.8s1,3.3,1,6.3v39.4h27.4v-39.3c0-5.4,1.5-8.1,4.6-8.1c1.7,0,2.8,0.6,3.4,1.8
	s1,3.3,1,6.3v39.4h27.4h42.5L705.8,368.6L705.8,368.6z"/>
<rect y="621" class="st1" width="220.7" height="14.7"/>
<text transform="matrix(1 0 0 1 0 630.9878)" style="display:none;fill:#E30613;enable-background:new    ; font-family:'ArialMT'; font-size:14px;">Font Franklin Gothic Demi Cond</text>
<path class="st8" d="M149.8,257.6h-27.4v60.9c0,11.2,2.9,20.3,8.8,27.3c3.4,4,7.6,7.3,12.9,9.7s10.5,3.6,16,3.6
	c10.9,0,20.1-3.7,27.5-11c7.5-7.3,11.2-16.3,11.2-27c0-10.3-3.7-19.2-11.1-26.7c-7.4-7.5-16.2-11.3-26.4-11.3
	c-1.6,0-4.1,0.1-7.3,0.4v30.2c2.2-1.8,4.5-2.6,6.7-2.6c2.8,0,5.3,1,7.3,3.1c2,2.1,3,4.6,3,7.5c0,2.8-1.1,5.3-3.1,7.3
	c-2.1,2-4.6,3-7.5,3c-7,0-10.6-4.9-10.6-14.6L149.8,257.6L149.8,257.6z"/>
</svg>
